<mxfile host="app.diagrams.net" modified="2024-07-22T12:03:25.358Z" agent="Mozilla/5.0 (Macintosh; Intel Mac OS X 10_15_7) AppleWebKit/537.36 (KHTML, like Gecko) Chrome/126.0.0.0 Safari/537.36" version="24.7.1" etag="mg-isdQCfR8XDLPF4tVo" type="github">
  <diagram name="Page-1" id="gTH3hmJ2dXAmlFIHOVHT">
    <mxGraphModel>
      <root>
        <mxCell id="0" />
        <mxCell id="1" parent="0" />
      </root>
    </mxGraphModel>
  </diagram>
</mxfile>
